<svg width="32" height="32" viewBox="0 0 32 32" fill="none" xmlns="http://www.w3.org/2000/svg">
<g clip-path="url(#clip0_1629:535)">
<path d="M16 0.000244141C7.16337 0.000244141 0 7.16362 0 16.0002C0 24.8368 7.16337 32.0002 16 32.0002C24.8366 32.0002 32 24.8368 32 16.0002C31.9999 7.16362 24.8364 0.000244141 16 0.000244141ZM11.7311 23.7355H8.21819V12.3861H11.7311V23.7355ZM9.95793 10.8998C8.81063 10.8998 7.88055 9.96216 7.88055 8.80567C7.88055 7.64906 8.81076 6.71146 9.95793 6.71146C11.1051 6.71146 12.0352 7.64906 12.0352 8.80567C12.0352 9.96222 11.1052 10.8998 9.95793 10.8998V10.8998ZM24.8959 23.7355H21.4V17.778C21.4 16.144 20.7794 15.2319 19.4873 15.2319C18.0812 15.2319 17.3466 16.1819 17.3466 17.778V23.7355H13.9773V12.3861H17.3466V13.9147C17.3466 13.9147 18.3601 12.0399 20.7666 12.0399C23.1732 12.0399 24.896 13.5094 24.896 16.5492L24.8959 23.7355V23.7355Z" fill="url(#paint0_linear_1629:535)"/>
</g>
<defs>
<linearGradient id="paint0_linear_1629:535" x1="4.68628" y1="4.68652" x2="27.3137" y2="27.3139" gradientUnits="userSpaceOnUse">
<stop stop-color="#2489BE"/>
<stop offset="1" stop-color="#0575B3"/>
</linearGradient>
<clipPath id="clip0_1629:535">
<rect width="32" height="32" fill="white"/>
</clipPath>
</defs>
</svg>
